# xmcd CD database file
#
# Track frame offsets:
#	150
#	16325
#	28162
#	41947
#	57097
#	59285
#	71855
#	94950
#	105492
#	118945
#	131690
#	144740
#	166147
#	181717
#	184720
#	197102
#	210967
#	229352
#
# Disc length: 3279 seconds
#
# Revision: 0
# Processed by: cddbd v1.4b41PL3 Copyright (c) Steve Scherf et al.
# Submitted via: CDex 1.40Beta5
#
DISCID=080ccd12
DTITLE=Buddy Blue - Dipsomania!
DYEAR=1999
DGENRE=Blues
TTITLE0=Talkin' Woman
TTITLE1=Whiskey Goggles
TTITLE2=Upsettin' Me
TTITLE3=Monk Side Story
TTITLE4=Dipsomanic Submission
TTITLE5=Fat, 40 'N' Flatulent
TTITLE6=Mily Way Blues
TTITLE7=Kick, Bite and Scream
TTITLE8=That's What I Like about the South
TTITLE9=Young John Skalman
TTITLE10=Daddy's Drinkin'
TTITLE11=Missing You
TTITLE12=Lady Mekhong
TTITLE13=Dipsomanic Emission
TTITLE14=That Yodelin' Hateful Rag
TTITLE15=Goodbye Little Boy
TTITLE16=What Is It that Tastes Like Gravy?
TTITLE17=(Unlisted)
EXTD=YEAR: 1999 ID3G:   0
EXTT0=
EXTT1=
EXTT2=
EXTT3=
EXTT4=
EXTT5=
EXTT6=
EXTT7=
EXTT8=
EXTT9=
EXTT10=
EXTT11=
EXTT12=
EXTT13=
EXTT14=
EXTT15=
EXTT16=
EXTT17=
PLAYORDER=
